<svg width="17" height="18" viewBox="0 0 17 18" fill="none" xmlns="http://www.w3.org/2000/svg">
<path d="M12.9479 8.25086C13.4066 12.2826 15.2105 13.5015 15.2105 13.5015H1C1 13.5015 3.36842 11.9016 3.36842 6.30061C3.36842 5.0277 3.86737 3.80654 4.75553 2.90643C5.64447 2.00631 6.85 1.5 8.10526 1.5C8.37132 1.5 8.63579 1.5225 8.89474 1.56751M9.47105 15.7518C9.33241 15.9793 9.13325 16.1682 8.89353 16.2996C8.65381 16.4309 8.38197 16.5 8.10526 16.5C7.82856 16.5 7.55671 16.4309 7.31699 16.2996C7.07728 16.1682 6.87811 15.9793 6.73947 15.7518M13.6316 6.00057C14.2597 6.00057 14.8621 5.76349 15.3063 5.34148C15.7505 4.91947 16 4.3471 16 3.75029C16 3.15347 15.7505 2.5811 15.3063 2.15909C14.8621 1.73708 14.2597 1.5 13.6316 1.5C13.0034 1.5 12.401 1.73708 11.9569 2.15909C11.5127 2.5811 11.2632 3.15347 11.2632 3.75029C11.2632 4.3471 11.5127 4.91947 11.9569 5.34148C12.401 5.76349 13.0034 6.00057 13.6316 6.00057Z" stroke="white" stroke-width="1.5" stroke-linecap="round" stroke-linejoin="round"/>
</svg>
