<svg id="Layer_1" data-name="Layer 1" xmlns="http://www.w3.org/2000/svg" viewBox="0 0 598.16 131.8"><defs><style>.cls-1{fill:#e50914;}</style></defs><path class="cls-1" d="M121.86,231.74h34.36A27.92,27.92,0,0,1,173,237a32.45,32.45,0,0,1,10.87,14.52,58,58,0,0,1,3.8,22c0,8.78-1.37,16.43-4.06,22.78a37.65,37.65,0,0,1-11.23,15.26q9.72,22.33,19.64,44.56c-8.56.78-12.84,1.19-21.39,2.05q-8.5-20.09-16.86-40.23c-5.23.37-7.84.57-13.07,1v42.46c-7.54.85-11.31,1.29-18.84,2.19Zm31.68,60.78c5.21-.26,9-1.92,11.45-5.13s3.59-7.62,3.6-13.62c0-5.83-1.16-10.16-3.58-12.84s-6.25-3.89-11.45-3.77l-12.84.27q0,17.88,0,35.76Z" transform="translate(-121.86 -231.74)"/><path class="cls-1" d="M255.66,327.25q-15.28.79-30.55,1.76c-2.22,9.85-3.34,14.8-5.57,24.72-7.58.62-11.38.94-19,1.61q15-61.87,30.5-123.6h19.67q15,58.93,30.34,117.78c-8,.45-11.94.69-19.9,1.2C259,341.36,257.87,336.66,255.66,327.25ZM250,303.64q-4.8-20.64-9.57-41.28-4.89,21-9.75,42.12C238.41,304.13,242.28,304,250,303.64Z" transform="translate(-121.86 -231.74)"/><path class="cls-1" d="M306.44,348.23l.06-92.89c-10.22.09-15.34.14-25.57.26,0-9.55,0-14.32,0-23.86h70c0,9.3,0,14,0,23.26-10.23.06-15.35.1-25.58.18q0,46.13-.05,92.26C317.76,347.73,314,347.89,306.44,348.23Z" transform="translate(-121.86 -231.74)"/><path class="cls-1" d="M369.23,231.74H428.7v22.9q-20.37,0-40.73,0c0,8.79,0,13.18,0,22q19.62-.11,39.24-.08v22.9q-19.62,0-39.24.13c0,9.31,0,14,0,23.28q20.67-.22,41.33-.17v22.91q-30-.11-60.09.52Q369.21,288.95,369.23,231.74Z" transform="translate(-121.86 -231.74)"/><path class="cls-1" d="M449.41,231.74h58.31c0,9.28,0,13.92,0,23.2q-19.73-.13-39.46-.21v24.48q19,.15,38.08.42c0,9.21,0,13.82,0,23q-19-.41-38.08-.62,0,22,0,44c-7.55-.15-11.32-.2-18.87-.29Q449.42,288.76,449.41,231.74Z" transform="translate(-121.86 -231.74)"/><path class="cls-1" d="M585.44,351q-29-1.84-58.09-3.16,0-58.06-.08-116.13h18.86q0,46.65.07,93.3,19.62.79,39.22,1.82C585.43,336.53,585.43,341.36,585.44,351Z" transform="translate(-121.86 -231.74)"/><path class="cls-1" d="M603.61,352.29l-.09-120.55h18.86q0,61,.08,122C614.92,353.13,611.15,352.84,603.61,352.29Z" transform="translate(-121.86 -231.74)"/><path class="cls-1" d="M667.53,292.05q-13-30.24-26.29-60.31h22.44q8,19.15,15.87,38.4,7.71-19.17,15.26-38.4H717q-13,31-26.48,61.82,15,34.88,29.49,70c-9-1.08-13.52-1.6-22.53-2.6q-9.4-23-19.09-45.89-8.94,21-18,42.05c-8.83-.85-13.25-1.26-22.08-2Q653.12,323.65,667.53,292.05Z" transform="translate(-121.86 -231.74)"/></svg>