<svg width="15" height="16" viewBox="0 0 15 16" fill="none" xmlns="http://www.w3.org/2000/svg">
<path fill-rule="evenodd" clip-rule="evenodd" d="M6.67203 0.5C5.60802 0.500091 4.55946 0.75462 3.61383 1.24235C2.6682 1.73009 1.85292 2.43688 1.23601 3.30376C0.619105 4.17065 0.218458 5.17249 0.0674994 6.2257C-0.0834596 7.2789 0.0196459 8.35294 0.368214 9.3582C0.716782 10.3635 1.3007 11.2708 2.07127 12.0045C2.84183 12.7382 3.77668 13.277 4.79783 13.5759C5.81898 13.8749 6.89682 13.9253 7.94141 13.723C8.98601 13.5206 9.96708 13.0715 10.8028 12.4129L13.6696 15.2796C13.8177 15.4226 14.016 15.5018 14.2218 15.5C14.4276 15.4982 14.6245 15.4156 14.7701 15.2701C14.9156 15.1245 14.9982 14.9277 15 14.7218C15.0018 14.516 14.9226 14.3177 14.7796 14.1697L11.9128 11.3029C12.6884 10.319 13.1713 9.13669 13.3062 7.89118C13.4412 6.64567 13.2228 5.38732 12.676 4.26014C12.1292 3.13296 11.276 2.1825 10.2142 1.51752C9.15245 0.852541 7.92489 0.499916 6.67203 0.5ZM1.56946 7.17235C1.56946 5.81911 2.10705 4.5213 3.06397 3.56442C4.02089 2.60754 5.31875 2.06996 6.67203 2.06996C8.02532 2.06996 9.32318 2.60754 10.2801 3.56442C11.237 4.5213 11.7746 5.81911 11.7746 7.17235C11.7746 8.52559 11.237 9.8234 10.2801 10.7803C9.32318 11.7372 8.02532 12.2747 6.67203 12.2747C5.31875 12.2747 4.02089 11.7372 3.06397 10.7803C2.10705 9.8234 1.56946 8.52559 1.56946 7.17235Z" fill="#F4F4F4"/>
</svg>
